<svg width="488" height="245" viewBox="0 0 488 245" fill="none" xmlns="http://www.w3.org/2000/svg">
<path d="M476.756 156.7C483.956 164.5 487.556 174.7 487.556 187.3V244H422.456V207.1C422.456 194.5 419.156 185.2 412.556 179.5C405.956 173.8 394.856 170.8 378.956 170.8H294.356V244H229.556V37.6H396.656C456.656 37.6 486.656 55.6 486.656 91.3V94.6C486.656 116.5 473.756 131.5 448.256 139.9C459.956 143.2 469.556 148.6 476.756 156.7ZM418.856 104.8V104.5C418.856 98.5 416.756 93.7 412.556 90.1C408.356 86.5 401.756 84.4 392.756 84.4H294.356V125.2H392.756C401.756 125.2 408.356 123.1 412.556 119.5C416.756 115.9 418.856 110.8 418.856 104.8Z" fill="white"/>
<path d="M289.058 244.222V37.4272H96.1283C66.0383 37.4272 44.7983 41.5572 32.4083 50.4072C19.7233 59.2572 13.5283 70.7622 13.5283 84.6272V88.4622C13.5283 94.6572 15.0033 100.557 17.3633 105.572C20.0183 110.587 23.2633 114.717 27.6883 117.667C31.8183 120.912 35.6533 123.272 39.1933 124.747C42.4383 126.517 45.9783 127.992 49.5183 128.877C44.5033 129.762 39.7833 131.532 35.0633 133.597C30.3433 135.662 25.3283 138.612 19.7233 142.152C14.1183 145.987 9.39832 151.297 6.15331 158.082C2.61332 164.572 0.843306 172.242 0.843306 180.797V184.632C0.843306 224.457 32.1133 244.222 94.3583 244.222H289.058ZM218.553 81.0872V114.717H108.223C91.7033 114.717 83.7383 109.112 83.7383 97.9022V97.3122C83.7383 86.3972 91.7033 81.0872 108.223 81.0872H218.553ZM102.028 158.672H218.553V199.087H102.028C91.7033 199.087 84.3283 197.022 80.1983 192.892C76.3633 189.057 74.2983 184.337 74.2983 178.732V177.847C74.2983 164.867 83.4433 158.672 102.028 158.672Z" fill="white"/>
</svg>
